<?xml version="1.0" standalone="no"?>
<svg xmlns="http://www.w3.org/2000/svg" width="500" height="500"><defs><clipPath id="clip-path-dot-color"><circle cx="26" cy="218" r="8" transform="rotate(0,26,218)"/><circle cx="26" cy="250" r="8" transform="rotate(0,26,250)"/><circle cx="26" cy="314" r="8" transform="rotate(0,26,314)"/><circle cx="26" cy="330" r="8" transform="rotate(0,26,330)"/><circle cx="42" cy="186" r="8" transform="rotate(0,42,186)"/><circle cx="42" cy="202" r="8" transform="rotate(0,42,202)"/><circle cx="42" cy="250" r="8" transform="rotate(0,42,250)"/><circle cx="42" cy="266" r="8" transform="rotate(0,42,266)"/><circle cx="42" cy="282" r="8" transform="rotate(0,42,282)"/><circle cx="42" cy="298" r="8" transform="rotate(0,42,298)"/><circle cx="42" cy="330" r="8" transform="rotate(0,42,330)"/><circle cx="58" cy="202" r="8" transform="rotate(0,58,202)"/><circle cx="58" cy="218" r="8" transform="rotate(0,58,218)"/><circle cx="58" cy="234" r="8" transform="rotate(0,58,234)"/><circle cx="58" cy="250" r="8" transform="rotate(0,58,250)"/><circle cx="58" cy="266" r="8" transform="rotate(0,58,266)"/><circle cx="58" cy="298" r="8" transform="rotate(0,58,298)"/><circle cx="74" cy="154" r="8" transform="rotate(0,74,154)"/><circle cx="74" cy="170" r="8" transform="rotate(0,74,170)"/><circle cx="74" cy="218" r="8" transform="rotate(0,74,218)"/><circle cx="74" cy="266" r="8" transform="rotate(0,74,266)"/><circle cx="74" cy="282" r="8" transform="rotate(0,74,282)"/><circle cx="74" cy="298" r="8" transform="rotate(0,74,298)"/><circle cx="74" cy="314" r="8" transform="rotate(0,74,314)"/><circle cx="74" cy="330" r="8" transform="rotate(0,74,330)"/><circle cx="90" cy="186" r="8" transform="rotate(0,90,186)"/><circle cx="90" cy="218" r="8" transform="rotate(0,90,218)"/><circle cx="90" cy="250" r="8" transform="rotate(0,90,250)"/><circle cx="90" cy="266" r="8" transform="rotate(0,90,266)"/><circle cx="90" cy="298" r="8" transform="rotate(0,90,298)"/><circle cx="90" cy="314" r="8" transform="rotate(0,90,314)"/><circle cx="106" cy="154" r="8" transform="rotate(0,106,154)"/><circle cx="106" cy="170" r="8" transform="rotate(0,106,170)"/><circle cx="106" cy="186" r="8" transform="rotate(0,106,186)"/><circle cx="106" cy="218" r="8" transform="rotate(0,106,218)"/><circle cx="106" cy="234" r="8" transform="rotate(0,106,234)"/><circle cx="106" cy="282" r="8" transform="rotate(0,106,282)"/><circle cx="106" cy="346" r="8" transform="rotate(0,106,346)"/><circle cx="122" cy="154" r="8" transform="rotate(0,122,154)"/><circle cx="122" cy="186" r="8" transform="rotate(0,122,186)"/><circle cx="122" cy="218" r="8" transform="rotate(0,122,218)"/><circle cx="122" cy="250" r="8" transform="rotate(0,122,250)"/><circle cx="122" cy="282" r="8" transform="rotate(0,122,282)"/><circle cx="122" cy="314" r="8" transform="rotate(0,122,314)"/><circle cx="122" cy="346" r="8" transform="rotate(0,122,346)"/><circle cx="138" cy="154" r="8" transform="rotate(0,138,154)"/><circle cx="138" cy="186" r="8" transform="rotate(0,138,186)"/><circle cx="138" cy="314" r="8" transform="rotate(0,138,314)"/><circle cx="154" cy="42" r="8" transform="rotate(0,154,42)"/><circle cx="154" cy="58" r="8" transform="rotate(0,154,58)"/><circle cx="154" cy="122" r="8" transform="rotate(0,154,122)"/><circle cx="154" cy="170" r="8" transform="rotate(0,154,170)"/><circle cx="154" cy="202" r="8" transform="rotate(0,154,202)"/><circle cx="154" cy="234" r="8" transform="rotate(0,154,234)"/><circle cx="154" cy="250" r="8" transform="rotate(0,154,250)"/><circle cx="154" cy="266" r="8" transform="rotate(0,154,266)"/><circle cx="154" cy="282" r="8" transform="rotate(0,154,282)"/><circle cx="154" cy="298" r="8" transform="rotate(0,154,298)"/><circle cx="154" cy="314" r="8" transform="rotate(0,154,314)"/><circle cx="154" cy="378" r="8" transform="rotate(0,154,378)"/><circle cx="154" cy="394" r="8" transform="rotate(0,154,394)"/><circle cx="154" cy="426" r="8" transform="rotate(0,154,426)"/><circle cx="170" cy="58" r="8" transform="rotate(0,170,58)"/><circle cx="170" cy="138" r="8" transform="rotate(0,170,138)"/><circle cx="170" cy="154" r="8" transform="rotate(0,170,154)"/><circle cx="170" cy="186" r="8" transform="rotate(0,170,186)"/><circle cx="170" cy="218" r="8" transform="rotate(0,170,218)"/><circle cx="170" cy="234" r="8" transform="rotate(0,170,234)"/><circle cx="170" cy="314" r="8" transform="rotate(0,170,314)"/><circle cx="170" cy="378" r="8" transform="rotate(0,170,378)"/><circle cx="170" cy="394" r="8" transform="rotate(0,170,394)"/><circle cx="170" cy="426" r="8" transform="rotate(0,170,426)"/><circle cx="170" cy="442" r="8" transform="rotate(0,170,442)"/><circle cx="170" cy="458" r="8" transform="rotate(0,170,458)"/><circle cx="170" cy="474" r="8" transform="rotate(0,170,474)"/><circle cx="186" cy="26" r="8" transform="rotate(0,186,26)"/><circle cx="186" cy="42" r="8" transform="rotate(0,186,42)"/><circle cx="186" cy="74" r="8" transform="rotate(0,186,74)"/><circle cx="186" cy="90" r="8" transform="rotate(0,186,90)"/><circle cx="186" cy="122" r="8" transform="rotate(0,186,122)"/><circle cx="186" cy="154" r="8" transform="rotate(0,186,154)"/><circle cx="186" cy="170" r="8" transform="rotate(0,186,170)"/><circle cx="186" cy="298" r="8" transform="rotate(0,186,298)"/><circle cx="186" cy="330" r="8" transform="rotate(0,186,330)"/><circle cx="186" cy="362" r="8" transform="rotate(0,186,362)"/><circle cx="186" cy="426" r="8" transform="rotate(0,186,426)"/><circle cx="186" cy="474" r="8" transform="rotate(0,186,474)"/><circle cx="202" cy="26" r="8" transform="rotate(0,202,26)"/><circle cx="202" cy="42" r="8" transform="rotate(0,202,42)"/><circle cx="202" cy="90" r="8" transform="rotate(0,202,90)"/><circle cx="202" cy="106" r="8" transform="rotate(0,202,106)"/><circle cx="202" cy="154" r="8" transform="rotate(0,202,154)"/><circle cx="202" cy="186" r="8" transform="rotate(0,202,186)"/><circle cx="202" cy="202" r="8" transform="rotate(0,202,202)"/><circle cx="202" cy="234" r="8" transform="rotate(0,202,234)"/><circle cx="202" cy="266" r="8" transform="rotate(0,202,266)"/><circle cx="202" cy="314" r="8" transform="rotate(0,202,314)"/><circle cx="202" cy="378" r="8" transform="rotate(0,202,378)"/><circle cx="202" cy="426" r="8" transform="rotate(0,202,426)"/><circle cx="218" cy="26" r="8" transform="rotate(0,218,26)"/><circle cx="218" cy="42" r="8" transform="rotate(0,218,42)"/><circle cx="218" cy="58" r="8" transform="rotate(0,218,58)"/><circle cx="218" cy="122" r="8" transform="rotate(0,218,122)"/><circle cx="218" cy="138" r="8" transform="rotate(0,218,138)"/><circle cx="218" cy="154" r="8" transform="rotate(0,218,154)"/><circle cx="218" cy="186" r="8" transform="rotate(0,218,186)"/><circle cx="218" cy="250" r="8" transform="rotate(0,218,250)"/><circle cx="218" cy="282" r="8" transform="rotate(0,218,282)"/><circle cx="218" cy="330" r="8" transform="rotate(0,218,330)"/><circle cx="218" cy="346" r="8" transform="rotate(0,218,346)"/><circle cx="218" cy="362" r="8" transform="rotate(0,218,362)"/><circle cx="218" cy="378" r="8" transform="rotate(0,218,378)"/><circle cx="218" cy="458" r="8" transform="rotate(0,218,458)"/><circle cx="234" cy="42" r="8" transform="rotate(0,234,42)"/><circle cx="234" cy="58" r="8" transform="rotate(0,234,58)"/><circle cx="234" cy="170" r="8" transform="rotate(0,234,170)"/><circle cx="234" cy="202" r="8" transform="rotate(0,234,202)"/><circle cx="234" cy="234" r="8" transform="rotate(0,234,234)"/><circle cx="234" cy="282" r="8" transform="rotate(0,234,282)"/><circle cx="234" cy="298" r="8" transform="rotate(0,234,298)"/><circle cx="234" cy="314" r="8" transform="rotate(0,234,314)"/><circle cx="234" cy="330" r="8" transform="rotate(0,234,330)"/><circle cx="234" cy="346" r="8" transform="rotate(0,234,346)"/><circle cx="234" cy="378" r="8" transform="rotate(0,234,378)"/><circle cx="234" cy="426" r="8" transform="rotate(0,234,426)"/><circle cx="234" cy="474" r="8" transform="rotate(0,234,474)"/><circle cx="250" cy="26" r="8" transform="rotate(0,250,26)"/><circle cx="250" cy="42" r="8" transform="rotate(0,250,42)"/><circle cx="250" cy="58" r="8" transform="rotate(0,250,58)"/><circle cx="250" cy="74" r="8" transform="rotate(0,250,74)"/><circle cx="250" cy="122" r="8" transform="rotate(0,250,122)"/><circle cx="250" cy="138" r="8" transform="rotate(0,250,138)"/><circle cx="250" cy="170" r="8" transform="rotate(0,250,170)"/><circle cx="250" cy="202" r="8" transform="rotate(0,250,202)"/><circle cx="250" cy="218" r="8" transform="rotate(0,250,218)"/><circle cx="250" cy="250" r="8" transform="rotate(0,250,250)"/><circle cx="250" cy="330" r="8" transform="rotate(0,250,330)"/><circle cx="250" cy="378" r="8" transform="rotate(0,250,378)"/><circle cx="250" cy="426" r="8" transform="rotate(0,250,426)"/><circle cx="250" cy="442" r="8" transform="rotate(0,250,442)"/><circle cx="250" cy="458" r="8" transform="rotate(0,250,458)"/><circle cx="250" cy="474" r="8" transform="rotate(0,250,474)"/><circle cx="266" cy="26" r="8" transform="rotate(0,266,26)"/><circle cx="266" cy="58" r="8" transform="rotate(0,266,58)"/><circle cx="266" cy="74" r="8" transform="rotate(0,266,74)"/><circle cx="266" cy="154" r="8" transform="rotate(0,266,154)"/><circle cx="266" cy="170" r="8" transform="rotate(0,266,170)"/><circle cx="266" cy="234" r="8" transform="rotate(0,266,234)"/><circle cx="266" cy="250" r="8" transform="rotate(0,266,250)"/><circle cx="266" cy="266" r="8" transform="rotate(0,266,266)"/><circle cx="266" cy="282" r="8" transform="rotate(0,266,282)"/><circle cx="266" cy="298" r="8" transform="rotate(0,266,298)"/><circle cx="266" cy="346" r="8" transform="rotate(0,266,346)"/><circle cx="266" cy="362" r="8" transform="rotate(0,266,362)"/><circle cx="266" cy="426" r="8" transform="rotate(0,266,426)"/><circle cx="282" cy="74" r="8" transform="rotate(0,282,74)"/><circle cx="282" cy="90" r="8" transform="rotate(0,282,90)"/><circle cx="282" cy="122" r="8" transform="rotate(0,282,122)"/><circle cx="282" cy="154" r="8" transform="rotate(0,282,154)"/><circle cx="282" cy="202" r="8" transform="rotate(0,282,202)"/><circle cx="282" cy="218" r="8" transform="rotate(0,282,218)"/><circle cx="282" cy="250" r="8" transform="rotate(0,282,250)"/><circle cx="282" cy="266" r="8" transform="rotate(0,282,266)"/><circle cx="282" cy="298" r="8" transform="rotate(0,282,298)"/><circle cx="282" cy="346" r="8" transform="rotate(0,282,346)"/><circle cx="282" cy="362" r="8" transform="rotate(0,282,362)"/><circle cx="282" cy="378" r="8" transform="rotate(0,282,378)"/><circle cx="282" cy="394" r="8" transform="rotate(0,282,394)"/><circle cx="282" cy="458" r="8" transform="rotate(0,282,458)"/><circle cx="298" cy="58" r="8" transform="rotate(0,298,58)"/><circle cx="298" cy="74" r="8" transform="rotate(0,298,74)"/><circle cx="298" cy="90" r="8" transform="rotate(0,298,90)"/><circle cx="298" cy="154" r="8" transform="rotate(0,298,154)"/><circle cx="298" cy="186" r="8" transform="rotate(0,298,186)"/><circle cx="298" cy="218" r="8" transform="rotate(0,298,218)"/><circle cx="298" cy="346" r="8" transform="rotate(0,298,346)"/><circle cx="298" cy="378" r="8" transform="rotate(0,298,378)"/><circle cx="298" cy="394" r="8" transform="rotate(0,298,394)"/><circle cx="298" cy="474" r="8" transform="rotate(0,298,474)"/><circle cx="314" cy="26" r="8" transform="rotate(0,314,26)"/><circle cx="314" cy="42" r="8" transform="rotate(0,314,42)"/><circle cx="314" cy="58" r="8" transform="rotate(0,314,58)"/><circle cx="314" cy="106" r="8" transform="rotate(0,314,106)"/><circle cx="314" cy="122" r="8" transform="rotate(0,314,122)"/><circle cx="314" cy="170" r="8" transform="rotate(0,314,170)"/><circle cx="314" cy="186" r="8" transform="rotate(0,314,186)"/><circle cx="314" cy="266" r="8" transform="rotate(0,314,266)"/><circle cx="314" cy="314" r="8" transform="rotate(0,314,314)"/><circle cx="314" cy="346" r="8" transform="rotate(0,314,346)"/><circle cx="314" cy="410" r="8" transform="rotate(0,314,410)"/><circle cx="314" cy="474" r="8" transform="rotate(0,314,474)"/><circle cx="330" cy="138" r="8" transform="rotate(0,330,138)"/><circle cx="330" cy="170" r="8" transform="rotate(0,330,170)"/><circle cx="330" cy="186" r="8" transform="rotate(0,330,186)"/><circle cx="330" cy="218" r="8" transform="rotate(0,330,218)"/><circle cx="330" cy="234" r="8" transform="rotate(0,330,234)"/><circle cx="330" cy="250" r="8" transform="rotate(0,330,250)"/><circle cx="330" cy="314" r="8" transform="rotate(0,330,314)"/><circle cx="330" cy="330" r="8" transform="rotate(0,330,330)"/><circle cx="330" cy="346" r="8" transform="rotate(0,330,346)"/><circle cx="330" cy="362" r="8" transform="rotate(0,330,362)"/><circle cx="330" cy="378" r="8" transform="rotate(0,330,378)"/><circle cx="330" cy="426" r="8" transform="rotate(0,330,426)"/><circle cx="346" cy="26" r="8" transform="rotate(0,346,26)"/><circle cx="346" cy="42" r="8" transform="rotate(0,346,42)"/><circle cx="346" cy="58" r="8" transform="rotate(0,346,58)"/><circle cx="346" cy="90" r="8" transform="rotate(0,346,90)"/><circle cx="346" cy="106" r="8" transform="rotate(0,346,106)"/><circle cx="346" cy="122" r="8" transform="rotate(0,346,122)"/><circle cx="346" cy="170" r="8" transform="rotate(0,346,170)"/><circle cx="346" cy="250" r="8" transform="rotate(0,346,250)"/><circle cx="346" cy="266" r="8" transform="rotate(0,346,266)"/><circle cx="346" cy="346" r="8" transform="rotate(0,346,346)"/><circle cx="346" cy="362" r="8" transform="rotate(0,346,362)"/><circle cx="346" cy="378" r="8" transform="rotate(0,346,378)"/><circle cx="346" cy="394" r="8" transform="rotate(0,346,394)"/><circle cx="346" cy="410" r="8" transform="rotate(0,346,410)"/><circle cx="346" cy="458" r="8" transform="rotate(0,346,458)"/><circle cx="362" cy="154" r="8" transform="rotate(0,362,154)"/><circle cx="362" cy="186" r="8" transform="rotate(0,362,186)"/><circle cx="362" cy="218" r="8" transform="rotate(0,362,218)"/><circle cx="362" cy="250" r="8" transform="rotate(0,362,250)"/><circle cx="362" cy="266" r="8" transform="rotate(0,362,266)"/><circle cx="362" cy="282" r="8" transform="rotate(0,362,282)"/><circle cx="362" cy="346" r="8" transform="rotate(0,362,346)"/><circle cx="362" cy="410" r="8" transform="rotate(0,362,410)"/><circle cx="362" cy="426" r="8" transform="rotate(0,362,426)"/><circle cx="362" cy="474" r="8" transform="rotate(0,362,474)"/><circle cx="378" cy="170" r="8" transform="rotate(0,378,170)"/><circle cx="378" cy="234" r="8" transform="rotate(0,378,234)"/><circle cx="378" cy="250" r="8" transform="rotate(0,378,250)"/><circle cx="378" cy="266" r="8" transform="rotate(0,378,266)"/><circle cx="378" cy="298" r="8" transform="rotate(0,378,298)"/><circle cx="378" cy="314" r="8" transform="rotate(0,378,314)"/><circle cx="378" cy="346" r="8" transform="rotate(0,378,346)"/><circle cx="378" cy="378" r="8" transform="rotate(0,378,378)"/><circle cx="378" cy="410" r="8" transform="rotate(0,378,410)"/><circle cx="378" cy="426" r="8" transform="rotate(0,378,426)"/><circle cx="378" cy="442" r="8" transform="rotate(0,378,442)"/><circle cx="378" cy="474" r="8" transform="rotate(0,378,474)"/><circle cx="394" cy="186" r="8" transform="rotate(0,394,186)"/><circle cx="394" cy="202" r="8" transform="rotate(0,394,202)"/><circle cx="394" cy="218" r="8" transform="rotate(0,394,218)"/><circle cx="394" cy="234" r="8" transform="rotate(0,394,234)"/><circle cx="394" cy="250" r="8" transform="rotate(0,394,250)"/><circle cx="394" cy="314" r="8" transform="rotate(0,394,314)"/><circle cx="394" cy="330" r="8" transform="rotate(0,394,330)"/><circle cx="394" cy="346" r="8" transform="rotate(0,394,346)"/><circle cx="394" cy="410" r="8" transform="rotate(0,394,410)"/><circle cx="394" cy="426" r="8" transform="rotate(0,394,426)"/><circle cx="410" cy="170" r="8" transform="rotate(0,410,170)"/><circle cx="410" cy="186" r="8" transform="rotate(0,410,186)"/><circle cx="410" cy="202" r="8" transform="rotate(0,410,202)"/><circle cx="410" cy="234" r="8" transform="rotate(0,410,234)"/><circle cx="410" cy="282" r="8" transform="rotate(0,410,282)"/><circle cx="410" cy="298" r="8" transform="rotate(0,410,298)"/><circle cx="410" cy="314" r="8" transform="rotate(0,410,314)"/><circle cx="410" cy="330" r="8" transform="rotate(0,410,330)"/><circle cx="410" cy="346" r="8" transform="rotate(0,410,346)"/><circle cx="410" cy="362" r="8" transform="rotate(0,410,362)"/><circle cx="410" cy="378" r="8" transform="rotate(0,410,378)"/><circle cx="410" cy="394" r="8" transform="rotate(0,410,394)"/><circle cx="410" cy="410" r="8" transform="rotate(0,410,410)"/><circle cx="410" cy="474" r="8" transform="rotate(0,410,474)"/><circle cx="426" cy="170" r="8" transform="rotate(0,426,170)"/><circle cx="426" cy="218" r="8" transform="rotate(0,426,218)"/><circle cx="426" cy="234" r="8" transform="rotate(0,426,234)"/><circle cx="426" cy="250" r="8" transform="rotate(0,426,250)"/><circle cx="426" cy="282" r="8" transform="rotate(0,426,282)"/><circle cx="426" cy="298" r="8" transform="rotate(0,426,298)"/><circle cx="426" cy="314" r="8" transform="rotate(0,426,314)"/><circle cx="426" cy="330" r="8" transform="rotate(0,426,330)"/><circle cx="426" cy="346" r="8" transform="rotate(0,426,346)"/><circle cx="426" cy="394" r="8" transform="rotate(0,426,394)"/><circle cx="426" cy="410" r="8" transform="rotate(0,426,410)"/><circle cx="426" cy="458" r="8" transform="rotate(0,426,458)"/><circle cx="442" cy="154" r="8" transform="rotate(0,442,154)"/><circle cx="442" cy="186" r="8" transform="rotate(0,442,186)"/><circle cx="442" cy="202" r="8" transform="rotate(0,442,202)"/><circle cx="442" cy="250" r="8" transform="rotate(0,442,250)"/><circle cx="442" cy="282" r="8" transform="rotate(0,442,282)"/><circle cx="442" cy="298" r="8" transform="rotate(0,442,298)"/><circle cx="442" cy="362" r="8" transform="rotate(0,442,362)"/><circle cx="442" cy="410" r="8" transform="rotate(0,442,410)"/><circle cx="442" cy="426" r="8" transform="rotate(0,442,426)"/><circle cx="442" cy="442" r="8" transform="rotate(0,442,442)"/><circle cx="442" cy="458" r="8" transform="rotate(0,442,458)"/><circle cx="442" cy="474" r="8" transform="rotate(0,442,474)"/><circle cx="458" cy="154" r="8" transform="rotate(0,458,154)"/><circle cx="458" cy="186" r="8" transform="rotate(0,458,186)"/><circle cx="458" cy="202" r="8" transform="rotate(0,458,202)"/><circle cx="458" cy="218" r="8" transform="rotate(0,458,218)"/><circle cx="458" cy="266" r="8" transform="rotate(0,458,266)"/><circle cx="458" cy="282" r="8" transform="rotate(0,458,282)"/><circle cx="458" cy="314" r="8" transform="rotate(0,458,314)"/><circle cx="458" cy="362" r="8" transform="rotate(0,458,362)"/><circle cx="458" cy="378" r="8" transform="rotate(0,458,378)"/><circle cx="458" cy="426" r="8" transform="rotate(0,458,426)"/><circle cx="474" cy="186" r="8" transform="rotate(0,474,186)"/><circle cx="474" cy="202" r="8" transform="rotate(0,474,202)"/><circle cx="474" cy="218" r="8" transform="rotate(0,474,218)"/><circle cx="474" cy="250" r="8" transform="rotate(0,474,250)"/><circle cx="474" cy="282" r="8" transform="rotate(0,474,282)"/><circle cx="474" cy="330" r="8" transform="rotate(0,474,330)"/><circle cx="474" cy="346" r="8" transform="rotate(0,474,346)"/><circle cx="474" cy="394" r="8" transform="rotate(0,474,394)"/><circle cx="474" cy="410" r="8" transform="rotate(0,474,410)"/><circle cx="474" cy="426" r="8" transform="rotate(0,474,426)"/><circle cx="474" cy="474" r="8" transform="rotate(0,474,474)"/></clipPath><clipPath id="clip-path-corners-square-color-0-0"><path clip-rule="evenodd" d="M 74 18a 56 56 0 1 0 0.1 0zm 0 16a 40 40 0 1 1 -0.1 0Z" transform="rotate(0,74,74)"/></clipPath><clipPath id="clip-path-corners-dot-color-0-0"><circle cx="74" cy="74" r="24" transform="rotate(0,74,74)"/></clipPath><clipPath id="clip-path-corners-square-color-1-0"><path clip-rule="evenodd" d="M 426 18a 56 56 0 1 0 0.1 0zm 0 16a 40 40 0 1 1 -0.1 0Z" transform="rotate(90,426,74)"/></clipPath><clipPath id="clip-path-corners-dot-color-1-0"><circle cx="426" cy="74" r="24" transform="rotate(90,426,74)"/></clipPath><clipPath id="clip-path-corners-square-color-0-1"><path clip-rule="evenodd" d="M 74 370a 56 56 0 1 0 0.1 0zm 0 16a 40 40 0 1 1 -0.1 0Z" transform="rotate(-90,74,426)"/></clipPath><clipPath id="clip-path-corners-dot-color-0-1"><circle cx="74" cy="426" r="24" transform="rotate(-90,74,426)"/></clipPath></defs><rect x="0" y="0" height="500" width="500" clip-path="url('#clip-path-background-color')" fill="#fff"/><rect x="0" y="0" height="500" width="500" clip-path="url('#clip-path-dot-color')" fill="#000000"/><rect x="18" y="18" height="112" width="112" clip-path="url('#clip-path-corners-square-color-0-0')" fill="#000000"/><rect x="50" y="50" height="48" width="48" clip-path="url('#clip-path-corners-dot-color-0-0')" fill="#000000"/><rect x="370" y="18" height="112" width="112" clip-path="url('#clip-path-corners-square-color-1-0')" fill="#000000"/><rect x="402" y="50" height="48" width="48" clip-path="url('#clip-path-corners-dot-color-1-0')" fill="#000000"/><rect x="18" y="370" height="112" width="112" clip-path="url('#clip-path-corners-square-color-0-1')" fill="#000000"/><rect x="50" y="402" height="48" width="48" clip-path="url('#clip-path-corners-dot-color-0-1')" fill="#000000"/></svg>