<?xml version="1.0" standalone="no"?>
<svg xmlns="http://www.w3.org/2000/svg" width="500" height="500"><defs><clipPath id="clip-path-dot-color"><circle cx="26" cy="218" r="8" transform="rotate(0,26,218)"/><path d="M 18 242v 16h 8a 8 8, 0, 0, 0, 0 -16" transform="rotate(180,26,250)"/><path d="M 18 306v 16h 8a 8 8, 0, 0, 0, 0 -16" transform="rotate(-90,26,314)"/><path d="M 18 322v 16h 16v -8a 8 8, 0, 0, 0, -8 -8" transform="rotate(180,26,330)"/><path d="M 34 178v 16h 8a 8 8, 0, 0, 0, 0 -16" transform="rotate(-90,42,186)"/><path d="M 34 194v 16h 16v -8a 8 8, 0, 0, 0, -8 -8" transform="rotate(180,42,202)"/><rect x="34" y="242" width="16" height="16" transform="rotate(0,42,250)"/><rect x="34" y="258" width="16" height="16" transform="rotate(0,42,266)"/><rect x="34" y="274" width="16" height="16" transform="rotate(0,42,282)"/><path d="M 34 290v 16h 16v -8a 8 8, 0, 0, 0, -8 -8" transform="rotate(180,42,298)"/><path d="M 34 322v 16h 8a 8 8, 0, 0, 0, 0 -16" transform="rotate(0,42,330)"/><path d="M 50 194v 16h 16v -8a 8 8, 0, 0, 0, -8 -8" transform="rotate(0,58,202)"/><rect x="50" y="210" width="16" height="16" transform="rotate(0,58,218)"/><rect x="50" y="226" width="16" height="16" transform="rotate(0,58,234)"/><rect x="50" y="242" width="16" height="16" transform="rotate(0,58,250)"/><rect x="50" y="258" width="16" height="16" transform="rotate(0,58,266)"/><rect x="50" y="290" width="16" height="16" transform="rotate(0,58,298)"/><path d="M 66 146v 16h 8a 8 8, 0, 0, 0, 0 -16" transform="rotate(-90,74,154)"/><path d="M 66 162v 16h 8a 8 8, 0, 0, 0, 0 -16" transform="rotate(90,74,170)"/><rect x="66" y="210" width="16" height="16" transform="rotate(0,74,218)"/><rect x="66" y="258" width="16" height="16" transform="rotate(0,74,266)"/><rect x="66" y="274" width="16" height="16" transform="rotate(0,74,282)"/><rect x="66" y="290" width="16" height="16" transform="rotate(0,74,298)"/><rect x="66" y="306" width="16" height="16" transform="rotate(0,74,314)"/><path d="M 66 322v 16h 8a 8 8, 0, 0, 0, 0 -16" transform="rotate(90,74,330)"/><path d="M 82 178v 16h 8a 8 8, 0, 0, 0, 0 -16" transform="rotate(180,90,186)"/><rect x="82" y="210" width="16" height="16" transform="rotate(0,90,218)"/><path d="M 82 242v 16h 8a 8 8, 0, 0, 0, 0 -16" transform="rotate(-90,90,250)"/><path d="M 82 258v 16h 16v -8a 8 8, 0, 0, 0, -8 -8" transform="rotate(90,90,266)"/><path d="M 82 290v 16h 16v -8a 8 8, 0, 0, 0, -8 -8" transform="rotate(0,90,298)"/><path d="M 82 306v 16h 16v -8a 8 8, 0, 0, 0, -8 -8" transform="rotate(90,90,314)"/><path d="M 98 146v 16h 16v -8a 8 8, 0, 0, 0, -8 -8" transform="rotate(-90,106,154)"/><rect x="98" y="162" width="16" height="16" transform="rotate(0,106,170)"/><rect x="98" y="178" width="16" height="16" transform="rotate(0,106,186)"/><rect x="98" y="210" width="16" height="16" transform="rotate(0,106,218)"/><path d="M 98 226v 16h 8a 8 8, 0, 0, 0, 0 -16" transform="rotate(90,106,234)"/><path d="M 98 274v 16h 8a 8 8, 0, 0, 0, 0 -16" transform="rotate(180,106,282)"/><path d="M 98 338v 16h 8a 8 8, 0, 0, 0, 0 -16" transform="rotate(180,106,346)"/><rect x="114" y="146" width="16" height="16" transform="rotate(0,122,154)"/><rect x="114" y="178" width="16" height="16" transform="rotate(0,122,186)"/><path d="M 114 210v 16h 8a 8 8, 0, 0, 0, 0 -16" transform="rotate(0,122,218)"/><circle cx="122" cy="250" r="8" transform="rotate(0,122,250)"/><path d="M 114 274v 16h 8a 8 8, 0, 0, 0, 0 -16" transform="rotate(0,122,282)"/><path d="M 114 306v 16h 8a 8 8, 0, 0, 0, 0 -16" transform="rotate(180,122,314)"/><path d="M 114 338v 16h 8a 8 8, 0, 0, 0, 0 -16" transform="rotate(0,122,346)"/><path d="M 130 146v 16h 8a 8 8, 0, 0, 0, 0 -16" transform="rotate(0,138,154)"/><path d="M 130 178v 16h 8a 8 8, 0, 0, 0, 0 -16" transform="rotate(0,138,186)"/><rect x="130" y="306" width="16" height="16" transform="rotate(0,138,314)"/><path d="M 146 34v 16h 8a 8 8, 0, 0, 0, 0 -16" transform="rotate(-90,154,42)"/><path d="M 146 50v 16h 16v -8a 8 8, 0, 0, 0, -8 -8" transform="rotate(180,154,58)"/><circle cx="154" cy="122" r="8" transform="rotate(0,154,122)"/><circle cx="154" cy="170" r="8" transform="rotate(0,154,170)"/><circle cx="154" cy="202" r="8" transform="rotate(0,154,202)"/><path d="M 146 226v 16h 16v -8a 8 8, 0, 0, 0, -8 -8" transform="rotate(-90,154,234)"/><rect x="146" y="242" width="16" height="16" transform="rotate(0,154,250)"/><rect x="146" y="258" width="16" height="16" transform="rotate(0,154,266)"/><rect x="146" y="274" width="16" height="16" transform="rotate(0,154,282)"/><rect x="146" y="290" width="16" height="16" transform="rotate(0,154,298)"/><rect x="146" y="306" width="16" height="16" transform="rotate(0,154,314)"/><path d="M 146 370v 16h 16v -8a 8 8, 0, 0, 0, -8 -8" transform="rotate(-90,154,378)"/><path d="M 146 386v 16h 16v -8a 8 8, 0, 0, 0, -8 -8" transform="rotate(180,154,394)"/><path d="M 146 418v 16h 8a 8 8, 0, 0, 0, 0 -16" transform="rotate(180,154,426)"/><path d="M 162 50v 16h 8a 8 8, 0, 0, 0, 0 -16" transform="rotate(0,170,58)"/><path d="M 162 130v 16h 8a 8 8, 0, 0, 0, 0 -16" transform="rotate(-90,170,138)"/><path d="M 162 146v 16h 16v -8a 8 8, 0, 0, 0, -8 -8" transform="rotate(180,170,154)"/><circle cx="170" cy="186" r="8" transform="rotate(0,170,186)"/><path d="M 162 210v 16h 8a 8 8, 0, 0, 0, 0 -16" transform="rotate(-90,170,218)"/><path d="M 162 226v 16h 16v -8a 8 8, 0, 0, 0, -8 -8" transform="rotate(90,170,234)"/><path d="M 162 306v 16h 8a 8 8, 0, 0, 0, 0 -16" transform="rotate(0,170,314)"/><path d="M 162 370v 16h 16v -8a 8 8, 0, 0, 0, -8 -8" transform="rotate(0,170,378)"/><path d="M 162 386v 16h 16v -8a 8 8, 0, 0, 0, -8 -8" transform="rotate(90,170,394)"/><rect x="162" y="418" width="16" height="16" transform="rotate(0,170,426)"/><rect x="162" y="434" width="16" height="16" transform="rotate(0,170,442)"/><rect x="162" y="450" width="16" height="16" transform="rotate(0,170,458)"/><path d="M 162 466v 16h 16v -8a 8 8, 0, 0, 0, -8 -8" transform="rotate(180,170,474)"/><path d="M 178 18v 16h 16v -8a 8 8, 0, 0, 0, -8 -8" transform="rotate(-90,186,26)"/><path d="M 178 34v 16h 16v -8a 8 8, 0, 0, 0, -8 -8" transform="rotate(180,186,42)"/><path d="M 178 66v 16h 8a 8 8, 0, 0, 0, 0 -16" transform="rotate(-90,186,74)"/><path d="M 178 82v 16h 16v -8a 8 8, 0, 0, 0, -8 -8" transform="rotate(180,186,90)"/><circle cx="186" cy="122" r="8" transform="rotate(0,186,122)"/><rect x="178" y="146" width="16" height="16" transform="rotate(0,186,154)"/><path d="M 178 162v 16h 8a 8 8, 0, 0, 0, 0 -16" transform="rotate(90,186,170)"/><circle cx="186" cy="298" r="8" transform="rotate(0,186,298)"/><circle cx="186" cy="330" r="8" transform="rotate(0,186,330)"/><circle cx="186" cy="362" r="8" transform="rotate(0,186,362)"/><rect x="178" y="418" width="16" height="16" transform="rotate(0,186,426)"/><path d="M 178 466v 16h 8a 8 8, 0, 0, 0, 0 -16" transform="rotate(0,186,474)"/><rect x="194" y="18" width="16" height="16" transform="rotate(0,202,26)"/><rect x="194" y="34" width="16" height="16" transform="rotate(0,202,42)"/><path d="M 194 82v 16h 16v -8a 8 8, 0, 0, 0, -8 -8" transform="rotate(0,202,90)"/><path d="M 194 98v 16h 8a 8 8, 0, 0, 0, 0 -16" transform="rotate(90,202,106)"/><rect x="194" y="146" width="16" height="16" transform="rotate(0,202,154)"/><path d="M 194 178v 16h 16v -8a 8 8, 0, 0, 0, -8 -8" transform="rotate(-90,202,186)"/><path d="M 194 194v 16h 8a 8 8, 0, 0, 0, 0 -16" transform="rotate(90,202,202)"/><circle cx="202" cy="234" r="8" transform="rotate(0,202,234)"/><circle cx="202" cy="266" r="8" transform="rotate(0,202,266)"/><circle cx="202" cy="314" r="8" transform="rotate(0,202,314)"/><path d="M 194 370v 16h 8a 8 8, 0, 0, 0, 0 -16" transform="rotate(180,202,378)"/><path d="M 194 418v 16h 8a 8 8, 0, 0, 0, 0 -16" transform="rotate(0,202,426)"/><path d="M 210 18v 16h 16v -8a 8 8, 0, 0, 0, -8 -8" transform="rotate(0,218,26)"/><rect x="210" y="34" width="16" height="16" transform="rotate(0,218,42)"/><path d="M 210 50v 16h 16v -8a 8 8, 0, 0, 0, -8 -8" transform="rotate(180,218,58)"/><path d="M 210 114v 16h 8a 8 8, 0, 0, 0, 0 -16" transform="rotate(-90,218,122)"/><rect x="210" y="130" width="16" height="16" transform="rotate(0,218,138)"/><path d="M 210 146v 16h 16v -8a 8 8, 0, 0, 0, -8 -8" transform="rotate(90,218,154)"/><path d="M 210 178v 16h 8a 8 8, 0, 0, 0, 0 -16" transform="rotate(0,218,186)"/><circle cx="218" cy="250" r="8" transform="rotate(0,218,250)"/><path d="M 210 274v 16h 8a 8 8, 0, 0, 0, 0 -16" transform="rotate(180,218,282)"/><path d="M 210 322v 16h 16v -8a 8 8, 0, 0, 0, -8 -8" transform="rotate(-90,218,330)"/><rect x="210" y="338" width="16" height="16" transform="rotate(0,218,346)"/><rect x="210" y="354" width="16" height="16" transform="rotate(0,218,362)"/><rect x="210" y="370" width="16" height="16" transform="rotate(0,218,378)"/><circle cx="218" cy="458" r="8" transform="rotate(0,218,458)"/><rect x="226" y="34" width="16" height="16" transform="rotate(0,234,42)"/><rect x="226" y="50" width="16" height="16" transform="rotate(0,234,58)"/><path d="M 226 162v 16h 8a 8 8, 0, 0, 0, 0 -16" transform="rotate(180,234,170)"/><path d="M 226 194v 16h 8a 8 8, 0, 0, 0, 0 -16" transform="rotate(180,234,202)"/><circle cx="234" cy="234" r="8" transform="rotate(0,234,234)"/><path d="M 226 274v 16h 16v -8a 8 8, 0, 0, 0, -8 -8" transform="rotate(0,234,282)"/><rect x="226" y="290" width="16" height="16" transform="rotate(0,234,298)"/><rect x="226" y="306" width="16" height="16" transform="rotate(0,234,314)"/><rect x="226" y="322" width="16" height="16" transform="rotate(0,234,330)"/><path d="M 226 338v 16h 16v -8a 8 8, 0, 0, 0, -8 -8" transform="rotate(90,234,346)"/><rect x="226" y="370" width="16" height="16" transform="rotate(0,234,378)"/><path d="M 226 418v 16h 8a 8 8, 0, 0, 0, 0 -16" transform="rotate(180,234,426)"/><path d="M 226 466v 16h 8a 8 8, 0, 0, 0, 0 -16" transform="rotate(180,234,474)"/><path d="M 242 18v 16h 16v -8a 8 8, 0, 0, 0, -8 -8" transform="rotate(-90,250,26)"/><rect x="242" y="34" width="16" height="16" transform="rotate(0,250,42)"/><rect x="242" y="50" width="16" height="16" transform="rotate(0,250,58)"/><path d="M 242 66v 16h 16v -8a 8 8, 0, 0, 0, -8 -8" transform="rotate(180,250,74)"/><path d="M 242 114v 16h 8a 8 8, 0, 0, 0, 0 -16" transform="rotate(-90,250,122)"/><path d="M 242 130v 16h 8a 8 8, 0, 0, 0, 0 -16" transform="rotate(90,250,138)"/><rect x="242" y="162" width="16" height="16" transform="rotate(0,250,170)"/><path d="M 242 194v 16h 16v -8a 8 8, 0, 0, 0, -8 -8" transform="rotate(0,250,202)"/><path d="M 242 210v 16h 8a 8 8, 0, 0, 0, 0 -16" transform="rotate(90,250,218)"/><path d="M 242 242v 16h 8a 8 8, 0, 0, 0, 0 -16" transform="rotate(180,250,250)"/><path d="M 242 322v 16h 8a 8 8, 0, 0, 0, 0 -16" transform="rotate(0,250,330)"/><path d="M 242 370v 16h 8a 8 8, 0, 0, 0, 0 -16" transform="rotate(0,250,378)"/><rect x="242" y="418" width="16" height="16" transform="rotate(0,250,426)"/><rect x="242" y="434" width="16" height="16" transform="rotate(0,250,442)"/><rect x="242" y="450" width="16" height="16" transform="rotate(0,250,458)"/><path d="M 242 466v 16h 16v -8a 8 8, 0, 0, 0, -8 -8" transform="rotate(90,250,474)"/><path d="M 258 18v 16h 8a 8 8, 0, 0, 0, 0 -16" transform="rotate(0,266,26)"/><path d="M 258 50v 16h 16v -8a 8 8, 0, 0, 0, -8 -8" transform="rotate(0,266,58)"/><rect x="258" y="66" width="16" height="16" transform="rotate(0,266,74)"/><path d="M 258 146v 16h 16v -8a 8 8, 0, 0, 0, -8 -8" transform="rotate(-90,266,154)"/><path d="M 258 162v 16h 16v -8a 8 8, 0, 0, 0, -8 -8" transform="rotate(90,266,170)"/><path d="M 258 226v 16h 8a 8 8, 0, 0, 0, 0 -16" transform="rotate(-90,266,234)"/><rect x="258" y="242" width="16" height="16" transform="rotate(0,266,250)"/><rect x="258" y="258" width="16" height="16" transform="rotate(0,266,266)"/><rect x="258" y="274" width="16" height="16" transform="rotate(0,266,282)"/><path d="M 258 290v 16h 16v -8a 8 8, 0, 0, 0, -8 -8" transform="rotate(180,266,298)"/><path d="M 258 338v 16h 16v -8a 8 8, 0, 0, 0, -8 -8" transform="rotate(-90,266,346)"/><path d="M 258 354v 16h 16v -8a 8 8, 0, 0, 0, -8 -8" transform="rotate(180,266,362)"/><path d="M 258 418v 16h 8a 8 8, 0, 0, 0, 0 -16" transform="rotate(0,266,426)"/><rect x="274" y="66" width="16" height="16" transform="rotate(0,282,74)"/><path d="M 274 82v 16h 16v -8a 8 8, 0, 0, 0, -8 -8" transform="rotate(180,282,90)"/><circle cx="282" cy="122" r="8" transform="rotate(0,282,122)"/><rect x="274" y="146" width="16" height="16" transform="rotate(0,282,154)"/><path d="M 274 194v 16h 8a 8 8, 0, 0, 0, 0 -16" transform="rotate(-90,282,202)"/><path d="M 274 210v 16h 16v -8a 8 8, 0, 0, 0, -8 -8" transform="rotate(180,282,218)"/><path d="M 274 242v 16h 16v -8a 8 8, 0, 0, 0, -8 -8" transform="rotate(0,282,250)"/><path d="M 274 258v 16h 16v -8a 8 8, 0, 0, 0, -8 -8" transform="rotate(90,282,266)"/><path d="M 274 290v 16h 8a 8 8, 0, 0, 0, 0 -16" transform="rotate(0,282,298)"/><rect x="274" y="338" width="16" height="16" transform="rotate(0,282,346)"/><rect x="274" y="354" width="16" height="16" transform="rotate(0,282,362)"/><rect x="274" y="370" width="16" height="16" transform="rotate(0,282,378)"/><path d="M 274 386v 16h 16v -8a 8 8, 0, 0, 0, -8 -8" transform="rotate(180,282,394)"/><circle cx="282" cy="458" r="8" transform="rotate(0,282,458)"/><path d="M 290 50v 16h 16v -8a 8 8, 0, 0, 0, -8 -8" transform="rotate(-90,298,58)"/><rect x="290" y="66" width="16" height="16" transform="rotate(0,298,74)"/><path d="M 290 82v 16h 16v -8a 8 8, 0, 0, 0, -8 -8" transform="rotate(90,298,90)"/><path d="M 290 146v 16h 8a 8 8, 0, 0, 0, 0 -16" transform="rotate(0,298,154)"/><path d="M 290 178v 16h 8a 8 8, 0, 0, 0, 0 -16" transform="rotate(180,298,186)"/><path d="M 290 210v 16h 8a 8 8, 0, 0, 0, 0 -16" transform="rotate(0,298,218)"/><rect x="290" y="338" width="16" height="16" transform="rotate(0,298,346)"/><path d="M 290 370v 16h 16v -8a 8 8, 0, 0, 0, -8 -8" transform="rotate(0,298,378)"/><path d="M 290 386v 16h 16v -8a 8 8, 0, 0, 0, -8 -8" transform="rotate(90,298,394)"/><path d="M 290 466v 16h 8a 8 8, 0, 0, 0, 0 -16" transform="rotate(180,298,474)"/><path d="M 306 18v 16h 8a 8 8, 0, 0, 0, 0 -16" transform="rotate(-90,314,26)"/><rect x="306" y="34" width="16" height="16" transform="rotate(0,314,42)"/><path d="M 306 50v 16h 16v -8a 8 8, 0, 0, 0, -8 -8" transform="rotate(90,314,58)"/><path d="M 306 98v 16h 8a 8 8, 0, 0, 0, 0 -16" transform="rotate(-90,314,106)"/><path d="M 306 114v 16h 8a 8 8, 0, 0, 0, 0 -16" transform="rotate(90,314,122)"/><path d="M 306 162v 16h 16v -8a 8 8, 0, 0, 0, -8 -8" transform="rotate(-90,314,170)"/><rect x="306" y="178" width="16" height="16" transform="rotate(0,314,186)"/><circle cx="314" cy="266" r="8" transform="rotate(0,314,266)"/><path d="M 306 306v 16h 8a 8 8, 0, 0, 0, 0 -16" transform="rotate(180,314,314)"/><rect x="306" y="338" width="16" height="16" transform="rotate(0,314,346)"/><circle cx="314" cy="410" r="8" transform="rotate(0,314,410)"/><path d="M 306 466v 16h 8a 8 8, 0, 0, 0, 0 -16" transform="rotate(0,314,474)"/><circle cx="330" cy="138" r="8" transform="rotate(0,330,138)"/><rect x="322" y="162" width="16" height="16" transform="rotate(0,330,170)"/><path d="M 322 178v 16h 16v -8a 8 8, 0, 0, 0, -8 -8" transform="rotate(90,330,186)"/><path d="M 322 210v 16h 8a 8 8, 0, 0, 0, 0 -16" transform="rotate(-90,330,218)"/><rect x="322" y="226" width="16" height="16" transform="rotate(0,330,234)"/><path d="M 322 242v 16h 16v -8a 8 8, 0, 0, 0, -8 -8" transform="rotate(180,330,250)"/><path d="M 322 306v 16h 16v -8a 8 8, 0, 0, 0, -8 -8" transform="rotate(0,330,314)"/><rect x="322" y="322" width="16" height="16" transform="rotate(0,330,330)"/><rect x="322" y="338" width="16" height="16" transform="rotate(0,330,346)"/><rect x="322" y="354" width="16" height="16" transform="rotate(0,330,362)"/><path d="M 322 370v 16h 16v -8a 8 8, 0, 0, 0, -8 -8" transform="rotate(180,330,378)"/><circle cx="330" cy="426" r="8" transform="rotate(0,330,426)"/><path d="M 338 18v 16h 8a 8 8, 0, 0, 0, 0 -16" transform="rotate(-90,346,26)"/><rect x="338" y="34" width="16" height="16" transform="rotate(0,346,42)"/><path d="M 338 50v 16h 8a 8 8, 0, 0, 0, 0 -16" transform="rotate(90,346,58)"/><path d="M 338 82v 16h 8a 8 8, 0, 0, 0, 0 -16" transform="rotate(-90,346,90)"/><rect x="338" y="98" width="16" height="16" transform="rotate(0,346,106)"/><path d="M 338 114v 16h 8a 8 8, 0, 0, 0, 0 -16" transform="rotate(90,346,122)"/><path d="M 338 162v 16h 8a 8 8, 0, 0, 0, 0 -16" transform="rotate(0,346,170)"/><rect x="338" y="242" width="16" height="16" transform="rotate(0,346,250)"/><path d="M 338 258v 16h 16v -8a 8 8, 0, 0, 0, -8 -8" transform="rotate(180,346,266)"/><rect x="338" y="338" width="16" height="16" transform="rotate(0,346,346)"/><rect x="338" y="354" width="16" height="16" transform="rotate(0,346,362)"/><rect x="338" y="370" width="16" height="16" transform="rotate(0,346,378)"/><rect x="338" y="386" width="16" height="16" transform="rotate(0,346,394)"/><path d="M 338 402v 16h 16v -8a 8 8, 0, 0, 0, -8 -8" transform="rotate(180,346,410)"/><circle cx="346" cy="458" r="8" transform="rotate(0,346,458)"/><circle cx="362" cy="154" r="8" transform="rotate(0,362,154)"/><circle cx="362" cy="186" r="8" transform="rotate(0,362,186)"/><circle cx="362" cy="218" r="8" transform="rotate(0,362,218)"/><rect x="354" y="242" width="16" height="16" transform="rotate(0,362,250)"/><rect x="354" y="258" width="16" height="16" transform="rotate(0,362,266)"/><path d="M 354 274v 16h 8a 8 8, 0, 0, 0, 0 -16" transform="rotate(90,362,282)"/><rect x="354" y="338" width="16" height="16" transform="rotate(0,362,346)"/><rect x="354" y="402" width="16" height="16" transform="rotate(0,362,410)"/><path d="M 354 418v 16h 16v -8a 8 8, 0, 0, 0, -8 -8" transform="rotate(180,362,426)"/><path d="M 354 466v 16h 8a 8 8, 0, 0, 0, 0 -16" transform="rotate(180,362,474)"/><circle cx="378" cy="170" r="8" transform="rotate(0,378,170)"/><path d="M 370 226v 16h 16v -8a 8 8, 0, 0, 0, -8 -8" transform="rotate(-90,378,234)"/><rect x="370" y="242" width="16" height="16" transform="rotate(0,378,250)"/><path d="M 370 258v 16h 16v -8a 8 8, 0, 0, 0, -8 -8" transform="rotate(90,378,266)"/><path d="M 370 290v 16h 8a 8 8, 0, 0, 0, 0 -16" transform="rotate(-90,378,298)"/><path d="M 370 306v 16h 16v -8a 8 8, 0, 0, 0, -8 -8" transform="rotate(180,378,314)"/><rect x="370" y="338" width="16" height="16" transform="rotate(0,378,346)"/><circle cx="378" cy="378" r="8" transform="rotate(0,378,378)"/><rect x="370" y="402" width="16" height="16" transform="rotate(0,378,410)"/><rect x="370" y="418" width="16" height="16" transform="rotate(0,378,426)"/><path d="M 370 434v 16h 8a 8 8, 0, 0, 0, 0 -16" transform="rotate(90,378,442)"/><path d="M 370 466v 16h 8a 8 8, 0, 0, 0, 0 -16" transform="rotate(0,378,474)"/><path d="M 386 178v 16h 16v -8a 8 8, 0, 0, 0, -8 -8" transform="rotate(-90,394,186)"/><rect x="386" y="194" width="16" height="16" transform="rotate(0,394,202)"/><rect x="386" y="210" width="16" height="16" transform="rotate(0,394,218)"/><rect x="386" y="226" width="16" height="16" transform="rotate(0,394,234)"/><path d="M 386 242v 16h 16v -8a 8 8, 0, 0, 0, -8 -8" transform="rotate(90,394,250)"/><rect x="386" y="306" width="16" height="16" transform="rotate(0,394,314)"/><rect x="386" y="322" width="16" height="16" transform="rotate(0,394,330)"/><rect x="386" y="338" width="16" height="16" transform="rotate(0,394,346)"/><rect x="386" y="402" width="16" height="16" transform="rotate(0,394,410)"/><path d="M 386 418v 16h 16v -8a 8 8, 0, 0, 0, -8 -8" transform="rotate(90,394,426)"/><path d="M 402 162v 16h 16v -8a 8 8, 0, 0, 0, -8 -8" transform="rotate(-90,410,170)"/><rect x="402" y="178" width="16" height="16" transform="rotate(0,410,186)"/><path d="M 402 194v 16h 16v -8a 8 8, 0, 0, 0, -8 -8" transform="rotate(90,410,202)"/><rect x="402" y="226" width="16" height="16" transform="rotate(0,410,234)"/><path d="M 402 274v 16h 16v -8a 8 8, 0, 0, 0, -8 -8" transform="rotate(-90,410,282)"/><rect x="402" y="290" width="16" height="16" transform="rotate(0,410,298)"/><rect x="402" y="306" width="16" height="16" transform="rotate(0,410,314)"/><rect x="402" y="322" width="16" height="16" transform="rotate(0,410,330)"/><rect x="402" y="338" width="16" height="16" transform="rotate(0,410,346)"/><rect x="402" y="354" width="16" height="16" transform="rotate(0,410,362)"/><rect x="402" y="370" width="16" height="16" transform="rotate(0,410,378)"/><rect x="402" y="386" width="16" height="16" transform="rotate(0,410,394)"/><rect x="402" y="402" width="16" height="16" transform="rotate(0,410,410)"/><circle cx="410" cy="474" r="8" transform="rotate(0,410,474)"/><path d="M 418 162v 16h 8a 8 8, 0, 0, 0, 0 -16" transform="rotate(0,426,170)"/><path d="M 418 210v 16h 8a 8 8, 0, 0, 0, 0 -16" transform="rotate(-90,426,218)"/><rect x="418" y="226" width="16" height="16" transform="rotate(0,426,234)"/><path d="M 418 242v 16h 16v -8a 8 8, 0, 0, 0, -8 -8" transform="rotate(180,426,250)"/><rect x="418" y="274" width="16" height="16" transform="rotate(0,426,282)"/><rect x="418" y="290" width="16" height="16" transform="rotate(0,426,298)"/><rect x="418" y="306" width="16" height="16" transform="rotate(0,426,314)"/><rect x="418" y="322" width="16" height="16" transform="rotate(0,426,330)"/><path d="M 418 338v 16h 16v -8a 8 8, 0, 0, 0, -8 -8" transform="rotate(90,426,346)"/><path d="M 418 386v 16h 16v -8a 8 8, 0, 0, 0, -8 -8" transform="rotate(0,426,394)"/><rect x="418" y="402" width="16" height="16" transform="rotate(0,426,410)"/><path d="M 418 450v 16h 8a 8 8, 0, 0, 0, 0 -16" transform="rotate(180,426,458)"/><path d="M 434 146v 16h 8a 8 8, 0, 0, 0, 0 -16" transform="rotate(180,442,154)"/><path d="M 434 178v 16h 16v -8a 8 8, 0, 0, 0, -8 -8" transform="rotate(-90,442,186)"/><path d="M 434 194v 16h 16v -8a 8 8, 0, 0, 0, -8 -8" transform="rotate(180,442,202)"/><path d="M 434 242v 16h 8a 8 8, 0, 0, 0, 0 -16" transform="rotate(0,442,250)"/><rect x="434" y="274" width="16" height="16" transform="rotate(0,442,282)"/><path d="M 434 290v 16h 16v -8a 8 8, 0, 0, 0, -8 -8" transform="rotate(90,442,298)"/><path d="M 434 354v 16h 8a 8 8, 0, 0, 0, 0 -16" transform="rotate(180,442,362)"/><path d="M 434 402v 16h 16v -8a 8 8, 0, 0, 0, -8 -8" transform="rotate(0,442,410)"/><rect x="434" y="418" width="16" height="16" transform="rotate(0,442,426)"/><rect x="434" y="434" width="16" height="16" transform="rotate(0,442,442)"/><rect x="434" y="450" width="16" height="16" transform="rotate(0,442,458)"/><path d="M 434 466v 16h 8a 8 8, 0, 0, 0, 0 -16" transform="rotate(90,442,474)"/><path d="M 450 146v 16h 8a 8 8, 0, 0, 0, 0 -16" transform="rotate(0,458,154)"/><rect x="450" y="178" width="16" height="16" transform="rotate(0,458,186)"/><rect x="450" y="194" width="16" height="16" transform="rotate(0,458,202)"/><path d="M 450 210v 16h 16v -8a 8 8, 0, 0, 0, -8 -8" transform="rotate(180,458,218)"/><path d="M 450 258v 16h 8a 8 8, 0, 0, 0, 0 -16" transform="rotate(-90,458,266)"/><rect x="450" y="274" width="16" height="16" transform="rotate(0,458,282)"/><circle cx="458" cy="314" r="8" transform="rotate(0,458,314)"/><path d="M 450 354v 16h 16v -8a 8 8, 0, 0, 0, -8 -8" transform="rotate(0,458,362)"/><path d="M 450 370v 16h 8a 8 8, 0, 0, 0, 0 -16" transform="rotate(90,458,378)"/><rect x="450" y="418" width="16" height="16" transform="rotate(0,458,426)"/><path d="M 466 178v 16h 16v -8a 8 8, 0, 0, 0, -8 -8" transform="rotate(0,474,186)"/><rect x="466" y="194" width="16" height="16" transform="rotate(0,474,202)"/><path d="M 466 210v 16h 16v -8a 8 8, 0, 0, 0, -8 -8" transform="rotate(90,474,218)"/><circle cx="474" cy="250" r="8" transform="rotate(0,474,250)"/><path d="M 466 274v 16h 8a 8 8, 0, 0, 0, 0 -16" transform="rotate(0,474,282)"/><path d="M 466 322v 16h 8a 8 8, 0, 0, 0, 0 -16" transform="rotate(-90,474,330)"/><path d="M 466 338v 16h 8a 8 8, 0, 0, 0, 0 -16" transform="rotate(90,474,346)"/><path d="M 466 386v 16h 8a 8 8, 0, 0, 0, 0 -16" transform="rotate(-90,474,394)"/><rect x="466" y="402" width="16" height="16" transform="rotate(0,474,410)"/><path d="M 466 418v 16h 16v -8a 8 8, 0, 0, 0, -8 -8" transform="rotate(90,474,426)"/><circle cx="474" cy="474" r="8" transform="rotate(0,474,474)"/></clipPath><clipPath id="clip-path-corners-square-color-0-0"><path clip-rule="evenodd" d="M 18 58v 32a 40 40, 0, 0, 0, 40 40h 32a 40 40, 0, 0, 0, 40 -40v -32a 40 40, 0, 0, 0, -40 -40h -32a 40 40, 0, 0, 0, -40 40M 58 34h 32a 24 24, 0, 0, 1, 24 24v 32a 24 24, 0, 0, 1, -24 24h -32a 24 24, 0, 0, 1, -24 -24v -32a 24 24, 0, 0, 1, 24 -24" transform="rotate(0,74,74)"/></clipPath><clipPath id="clip-path-corners-dot-color-0-0"><rect x="50" y="50" width="48" height="48" transform="rotate(0,74,74)"/></clipPath><clipPath id="clip-path-corners-square-color-1-0"><path clip-rule="evenodd" d="M 370 58v 32a 40 40, 0, 0, 0, 40 40h 32a 40 40, 0, 0, 0, 40 -40v -32a 40 40, 0, 0, 0, -40 -40h -32a 40 40, 0, 0, 0, -40 40M 410 34h 32a 24 24, 0, 0, 1, 24 24v 32a 24 24, 0, 0, 1, -24 24h -32a 24 24, 0, 0, 1, -24 -24v -32a 24 24, 0, 0, 1, 24 -24" transform="rotate(90,426,74)"/></clipPath><clipPath id="clip-path-corners-dot-color-1-0"><rect x="402" y="50" width="48" height="48" transform="rotate(90,426,74)"/></clipPath><clipPath id="clip-path-corners-square-color-0-1"><path clip-rule="evenodd" d="M 18 410v 32a 40 40, 0, 0, 0, 40 40h 32a 40 40, 0, 0, 0, 40 -40v -32a 40 40, 0, 0, 0, -40 -40h -32a 40 40, 0, 0, 0, -40 40M 58 386h 32a 24 24, 0, 0, 1, 24 24v 32a 24 24, 0, 0, 1, -24 24h -32a 24 24, 0, 0, 1, -24 -24v -32a 24 24, 0, 0, 1, 24 -24" transform="rotate(-90,74,426)"/></clipPath><clipPath id="clip-path-corners-dot-color-0-1"><rect x="50" y="402" width="48" height="48" transform="rotate(-90,74,426)"/></clipPath></defs><rect x="0" y="0" height="500" width="500" clip-path="url('#clip-path-background-color')" fill="#fff"/><rect x="0" y="0" height="500" width="500" clip-path="url('#clip-path-dot-color')" fill="#000000"/><rect x="18" y="18" height="112" width="112" clip-path="url('#clip-path-corners-square-color-0-0')" fill="#000000"/><rect x="50" y="50" height="48" width="48" clip-path="url('#clip-path-corners-dot-color-0-0')" fill="#000000"/><rect x="370" y="18" height="112" width="112" clip-path="url('#clip-path-corners-square-color-1-0')" fill="#000000"/><rect x="402" y="50" height="48" width="48" clip-path="url('#clip-path-corners-dot-color-1-0')" fill="#000000"/><rect x="18" y="370" height="112" width="112" clip-path="url('#clip-path-corners-square-color-0-1')" fill="#000000"/><rect x="50" y="402" height="48" width="48" clip-path="url('#clip-path-corners-dot-color-0-1')" fill="#000000"/></svg>